<svg width="1600" height="900" viewBox="0 0 1600 900" fill="none" xmlns="http://www.w3.org/2000/svg">
  <rect width="1600" height="900" fill="#0F172A"/>
  <rect width="1600" height="900" fill="url(#paint0_linear_1_2)"/>
  <circle cx="1270" cy="170" r="210" fill="#34D399" fill-opacity="0.22"/>
  <circle cx="260" cy="760" r="280" fill="#38BDF8" fill-opacity="0.18"/>
  <rect x="150" y="210" width="500" height="360" rx="28" fill="#E2E8F0" fill-opacity="0.1" stroke="#E2E8F0" stroke-opacity="0.25"/>
  <rect x="690" y="160" width="760" height="520" rx="34" fill="#020617" fill-opacity="0.28" stroke="#CBD5E1" stroke-opacity="0.2"/>
  <rect x="214" y="274" width="372" height="28" rx="14" fill="#A7F3D0"/>
  <rect x="214" y="330" width="258" height="18" rx="9" fill="#E2E8F0" fill-opacity="0.72"/>
  <rect x="214" y="366" width="300" height="18" rx="9" fill="#E2E8F0" fill-opacity="0.4"/>
  <rect x="214" y="450" width="156" height="42" rx="21" fill="#10B981"/>
  <rect x="390" y="450" width="176" height="42" rx="21" fill="#FFFFFF" fill-opacity="0.12" stroke="#FFFFFF" stroke-opacity="0.24"/>
  <path d="M810 495C855 398 922 342 1010 327C1112 310 1187 344 1240 411C1294 477 1370 511 1468 512V610H810V495Z" fill="#10B981" fill-opacity="0.25"/>
  <path d="M810 560C892 476 982 437 1081 442C1189 448 1318 511 1468 631V680H810V560Z" fill="#38BDF8" fill-opacity="0.2"/>
  <defs>
    <linearGradient id="paint0_linear_1_2" x1="0" y1="0" x2="1600" y2="900" gradientUnits="userSpaceOnUse">
      <stop stop-color="#0F172A"/>
      <stop offset="1" stop-color="#111827"/>
    </linearGradient>
  </defs>
</svg>
